<svg width="306" height="306" viewBox="0 0 306 306" fill="none" xmlns="http://www.w3.org/2000/svg">
<path d="M121 114C105 114 92 127 92 143C92 159 105 172 121 172C137 172 150 159 150 143C150 130.8 142.3 119.8 130.8 115.7C127.65 114.55 124.35 114 121 114ZM121 117C124 117 126.95 117.5 129.8 118.5C129.95 118.55 130.1 118.6 130.2 118.65L130.3 122.3C130.3 123.65 129.5 124.9 128.25 125.45C125.5 126.65 122.75 126 121.6 129.15C120.65 131.55 123.15 138 126.2 138C130.05 138 131.9 130.25 133.05 130.25C133.8 130.25 134.95 132.6 136.3 134.35C137.2 135.55 138.6 136.2 140.1 136.2H142.65L146.3 137.05C146.75 139 147 141 147 143C147 157.35 135.35 169 121 169C118.95 169 116.95 168.75 115.05 168.3V164.95L113.8 163.7C112.55 162.45 115.1 160.35 115.8 157.7C117.75 150.2 111.25 149.9 111.05 148.25C110.85 146.4 113.25 145 114.7 143.55C116.15 142.1 116.6 139.85 115.85 138.55C113.5 134.2 107.8 136.5 107.25 141.05C106.95 143.8 105.3 146.6 103.9 148.05C102.5 149.45 99.75 148.7 99 146.65C98.15 144.35 101.1 143.5 100.65 140.55C100.55 139.75 99.7004 139.35 98.6504 139.2L95.2002 139.3C97.0502 126.7 107.9 117 121 117ZM138.241 145.971C136.927 146.042 135.093 146.694 132.6 148.4C130.7 149.7 127.35 147 125.9 149C124.5 150.95 131.85 156.9 134.3 155.75C138.45 153.8 141.15 149.75 141.15 148.25C141.182 147.344 140.432 145.852 138.241 145.971Z" fill="#729890"/>
<path d="M157.677 118.12H176.507C181.221 118.12 184.954 119.077 187.707 120.99C190.927 123.277 192.537 126.543 192.537 130.79C192.537 134.337 191.394 137.323 189.107 139.75C188.454 140.497 187.637 141.173 186.657 141.78C185.724 142.387 184.651 142.97 183.437 143.53C188.244 144.323 191.721 146.213 193.867 149.2C195.501 151.487 196.317 154.053 196.317 156.9C196.317 161.52 194.567 165.37 191.067 168.45C187.707 171.483 183.624 173 178.817 173H157.677V118.12ZM176.157 122.95H163.207V141.78H173.637C177.837 141.78 181.057 140.847 183.297 138.98C185.537 137.067 186.657 134.617 186.657 131.63C186.657 129.297 185.864 127.29 184.277 125.61C182.364 123.837 179.657 122.95 176.157 122.95ZM175.177 146.61H163.207V168.17H176.507C180.521 168.17 183.811 167.167 186.377 165.16C188.944 163.013 190.227 160.283 190.227 156.97C190.227 153.61 188.921 151.043 186.307 149.27C183.741 147.497 180.031 146.61 175.177 146.61ZM202.446 118.05H236.606V122.88H207.976V141.85H235.556V146.68H207.976V168.17H236.816V173H202.446V118.05ZM243.053 173V118.12H250.263L271.543 163.55L293.523 118.12H300.313V173H295.343V125.33L272.733 173H270.353L248.093 125.4V173H243.053Z" fill="#6A89AC"/>
<path d="M46.3636 122.32V129.6C43.7969 127.313 41.3236 125.61 38.9436 124.49C36.1436 123.09 33.2736 122.39 30.3336 122.39C24.4069 122.39 19.4836 124.84 15.5636 129.74C11.8302 134.22 9.96355 139.587 9.96355 145.84C9.96355 152.187 11.9702 157.693 15.9836 162.36C19.7636 166.607 24.0336 168.73 28.7936 168.73C32.5736 168.73 35.7469 167.517 38.3136 165.09C41.1136 162.43 42.5136 158.93 42.5136 154.59V150.39H24.4536V145.56H48.1136V173H43.2836L42.5136 166.35C40.8802 168.403 39.1302 170.013 37.2636 171.18C34.3702 173 31.1969 173.91 27.7436 173.91C21.4436 173.91 15.9602 171.227 11.2936 165.86C6.48689 160.447 4.08355 153.82 4.08355 145.98C4.08355 137.907 6.58022 131.093 11.5736 125.54C16.5669 119.987 22.7969 117.21 30.2636 117.21C33.5302 117.21 36.7269 117.817 39.8536 119.03C41.4869 119.637 43.6569 120.733 46.3636 122.32ZM56.8734 118.12H62.4034V168.17H89.4934V173H56.8734V118.12Z" fill="#6A89AC"/>
</svg>
